<?xml version="1.0" standalone="no"?>
<!DOCTYPE svg PUBLIC "-//W3C//DTD SVG 20010904//EN"
 "http://www.w3.org/TR/2001/REC-SVG-20010904/DTD/svg10.dtd">
<svg version="1.0" xmlns="http://www.w3.org/2000/svg"
 width="1280.000000pt" height="409.000000pt" viewBox="0 0 1280.000000 409.000000"
 preserveAspectRatio="xMidYMid meet">
<metadata>
Created by potrace 1.16, written by Peter Selinger 2001-2019
</metadata>
<g transform="translate(0.000000,409.000000) scale(0.100000,-0.100000)"
fill="#000000" stroke="none">
<path d="M7199 3942 l-346 -2 -7 -53 c-9 -82 -8 -117 7 -112 32 10 2843 19
3302 11 94 -2 520 -4 947 -5 l777 -1 36 -65 c20 -36 39 -65 42 -65 2 0 -11 29
-31 64 -33 58 -36 72 -36 140 0 54 -4 78 -13 82 -14 5 -4089 11 -4678 6z"/>
<path d="M6637 3555 l-108 -114 7 -68 c3 -37 8 -70 10 -72 2 -3 1248 -5 2769
-5 l2765 -1 0 40 c0 22 -3 57 -6 78 l-7 37 -202 0 c-153 0 -205 3 -208 13 -4
9 -8 8 -16 -3 -10 -13 -11 -13 -11 0 0 13 -1 13 -10 0 -9 -13 -10 -13 -10 0 0
11 -2 12 -8 3 -10 -17 -54 -12 -69 7 -10 13 -12 13 -18 -2 -6 -14 -11 -16 -27
-7 -15 8 -19 8 -14 0 9 -14 0 -14 -25 -1 -14 8 -19 7 -19 -2 0 -9 -3 -9 -10 2
-6 10 -10 11 -10 3 0 -10 -79 -13 -361 -13 -237 0 -358 3 -354 10 3 6 -1 10
-10 10 -9 0 -13 -4 -10 -10 3 -6 1 -10 -4 -10 -6 0 -11 5 -11 10 0 6 -5 10
-11 10 -5 0 -7 -4 -4 -10 4 -6 -10 -10 -34 -10 -23 0 -41 5 -41 10 0 6 -5 10
-11 10 -5 0 -7 -4 -4 -10 3 -5 -1 -10 -10 -10 -9 0 -14 4 -11 8 2 4 -4 8 -14
8 -10 0 -16 -4 -14 -8 8 -13 -21 -9 -34 4 -9 9 -12 9 -12 -3 0 -12 -2 -12 -10
1 -6 10 -10 11 -10 3 0 -10 -45 -13 -193 -13 -107 0 -197 3 -201 7 -11 12 -56
14 -56 3 0 -5 -7 -10 -15 -10 -8 0 -15 5 -15 10 0 6 -5 10 -11 10 -5 0 -7 -4
-4 -10 3 -5 1 -10 -4 -10 -6 0 -11 5 -11 10 0 6 -7 10 -15 10 -8 0 -15 -4 -15
-8 0 -5 -7 -9 -15 -9 -8 0 -15 5 -15 11 0 6 -5 4 -10 -4 -5 -8 -10 -10 -10 -4
0 14 -30 14 -30 0 0 -6 -5 -4 -10 4 -6 10 -10 11 -10 3 0 -10 -82 -13 -374
-13 -348 0 -375 -1 -379 -17 -4 -17 -5 -17 -6 0 -1 16 -19 17 -232 17 -151 0
-228 3 -224 10 3 6 -1 10 -10 10 -9 0 -13 -4 -10 -10 3 -5 2 -10 -4 -10 -5 0
-11 5 -13 11 -3 8 -10 8 -26 -2 -15 -9 -25 -11 -30 -4 -8 13 -71 13 -91 1 -9
-6 -12 -5 -8 1 4 7 -3 10 -18 9 -14 0 -25 -5 -25 -11 0 -5 -5 -3 -10 5 -6 10
-10 11 -10 3 0 -10 -93 -13 -430 -13 -242 0 -430 4 -430 9 0 10 -47 8 -74 -4
-13 -6 -21 -5 -24 3 -3 9 -9 9 -24 1 -15 -8 -19 -8 -14 0 4 7 -1 11 -13 11
-12 0 -21 -6 -21 -12 0 -9 -3 -10 -8 -2 -9 14 -74 16 -82 3 -4 -6 -132 -8
-328 -7 l-322 3 96 108 c52 59 94 107 92 107 -2 0 -52 -52 -111 -115z"/>
<path d="M8823 3010 l-38 -49 -137 -1 c-76 0 -137 3 -135 8 1 4 -2 7 -8 7 -5
0 -9 -3 -7 -7 1 -5 -2 -8 -8 -8 -5 0 -10 5 -10 10 0 6 -5 10 -11 10 -5 0 -7
-4 -4 -10 4 -6 -5 -10 -19 -10 -14 0 -26 5 -26 10 0 6 -5 10 -11 10 -5 0 -7
-4 -4 -10 3 -5 1 -10 -4 -10 -6 0 -11 5 -11 10 0 6 -9 10 -21 10 -13 0 -18 -4
-13 -12 6 -10 4 -10 -7 -2 -8 6 -26 14 -41 16 -21 4 -28 1 -28 -11 0 -14 -2
-14 -10 -1 -6 10 -10 11 -10 3 0 -10 -119 -13 -560 -13 -527 0 -560 1 -560 18
-1 15 -2 15 -15 -2 -15 -20 -15 -20 -15 0 -1 16 -2 17 -13 4 -16 -19 -47 -25
-47 -8 0 8 -13 13 -35 14 -19 0 -35 -4 -35 -8 0 -5 -6 -6 -12 -1 -21 13 -78
10 -78 -4 0 -11 -92 -12 -497 -7 -274 3 -502 9 -508 12 -13 8 -46 7 -69 -3
-11 -5 -21 -3 -26 5 -5 9 -9 9 -14 1 -4 -6 -13 -8 -19 -4 -19 12 -37 12 -37 1
0 -6 -7 -4 -17 3 -13 11 -17 11 -21 1 -3 -10 -7 -10 -18 -1 -10 8 -14 8 -14 0
0 -6 -3 -10 -7 -10 -5 1 -155 1 -335 0 l-328 -1 0 -81 0 -81 1583 4 c870 1
1725 4 1899 6 l317 3 4 37 4 37 1 -37 2 -38 1605 0 1605 0 0 43 c0 23 -3 59
-7 80 l-6 39 -196 -2 c-108 -1 -198 -1 -201 0 -16 6 -260 4 -260 -2 0 -4 -382
-8 -850 -8 -677 0 -850 2 -850 12 0 9 -3 8 -10 -2 -9 -13 -11 -13 -20 0 -6 10
-10 11 -10 3 0 -7 -9 -13 -20 -13 -11 0 -20 5 -20 10 0 6 -5 10 -11 10 -5 0
-7 -4 -4 -10 9 -14 -9 -12 -23 2 -8 8 -15 9 -20 3 -11 -15 -32 -17 -32 -3 0 9
-4 8 -10 -2 -9 -13 -10 -13 -10 0 0 13 -1 13 -10 0 -7 -11 -10 -11 -10 -2 0
10 -5 10 -21 1 -32 -17 -603 -23 -593 -6 4 6 20 29 37 50 16 20 26 37 24 37
-3 0 -23 -22 -44 -50z"/>
<path d="M4013 2502 l-253 -2 0 -87 0 -86 1263 8 c1662 10 3951 6 4252 -8 11
0 613 0 1338 1 l1317 2 0 34 c0 18 -3 54 -6 80 l-7 46 -224 0 c-147 0 -222 3
-218 10 3 6 1 10 -4 10 -6 0 -11 -4 -11 -8 0 -13 -63 -11 -79 2 -11 8 -13 8
-7 -1 4 -8 2 -13 -8 -13 -8 0 -17 6 -19 13 -4 8 -8 9 -14 2 -9 -12 -62 -13
-80 -2 -8 5 -13 4 -13 -2 0 -7 -154 -11 -457 -12 -252 -1 -529 -3 -616 -4
-128 -2 -160 0 -164 12 -4 10 -9 11 -19 2 -11 -9 -14 -9 -14 0 0 7 -5 9 -10 6
-6 -4 -8 -11 -5 -16 10 -15 -12 -10 -29 6 -16 16 -28 20 -23 7 2 -7 -6 -12
-24 -12 -5 0 -7 5 -4 10 3 6 1 10 -4 10 -6 0 -11 -4 -11 -9 0 -6 -9 -8 -20 -6
-11 2 -20 -2 -20 -8 0 -8 -3 -8 -8 -2 -9 13 -62 16 -62 4 0 -5 -99 -9 -220 -9
l-220 0 -1 -22 c-1 -21 -2 -21 -6 -3 -3 11 -8 23 -11 27 -4 4 -1071 10 -2372
13 -1301 4 -2430 7 -2510 8 -80 1 -259 1 -397 -1z"/>
<path d="M7435 2020 c-11 -4 -1058 -5 -2327 -2 l-2306 5 -7 -77 c-4 -42 -6
-78 -4 -80 5 -4 3081 -16 4188 -16 808 0 853 -1 840 -17 -12 -16 -10 -15 15 1
29 18 82 19 1973 12 l1943 -8 0 81 c0 70 -2 81 -17 81 -10 1 -873 2 -1917 2
-1045 1 -1891 5 -1880 9 30 12 1 10 -34 -2 -27 -9 -31 -16 -35 -52 l-4 -42 -1
48 -2 47 -135 0 c-83 0 -135 4 -135 10 0 6 -5 10 -11 10 -5 0 -7 -4 -4 -10 3
-5 2 -10 -4 -10 -5 0 -13 4 -16 10 -4 6 -13 5 -26 -3 -16 -10 -21 -9 -28 2 -6
9 -10 10 -16 2 -4 -8 -11 -9 -18 -3 -7 5 -21 6 -32 2z"/>
<path d="M7310 1555 c-44 -24 -51 -24 -287 -25 -173 0 -243 3 -243 11 0 8 -4
8 -12 2 -16 -13 -106 -14 -114 -2 -3 5 -10 6 -16 3 -19 -12 -62 -13 -75 -2 -8
7 -13 7 -13 0 0 -6 -44 -11 -107 -12 -352 -7 -423 -7 -428 0 -3 5 -12 7 -20 3
-8 -3 -15 0 -15 6 0 7 -9 5 -25 -5 -14 -9 -25 -12 -25 -6 0 13 -93 11 -102 -3
-5 -6 -8 -6 -8 2 0 7 -12 9 -32 6 -73 -11 -518 -14 -518 -4 0 13 -50 11 -68
-3 -9 -7 -16 -6 -21 3 -7 10 -13 11 -31 1 -17 -9 -21 -9 -15 0 9 14 -27 10
-37 -5 -5 -6 -8 -4 -8 5 0 13 -1 13 -10 0 -5 -8 -10 -10 -10 -5 0 14 -47 18
-55 5 -9 -14 -1235 -14 -1235 0 0 6 -7 10 -16 10 -9 0 -12 -5 -8 -12 5 -9 2
-9 -9 1 -14 11 -20 11 -33 0 -11 -9 -18 -9 -22 -2 -7 11 -82 14 -82 3 0 -4 -7
-7 -15 -7 -8 0 -12 4 -10 7 3 4 -11 7 -30 7 -19 -1 -35 -5 -35 -9 0 -4 -214
-8 -475 -8 -310 0 -475 3 -475 10 0 6 -5 10 -11 10 -5 0 -7 -4 -4 -10 3 -5 2
-10 -4 -10 -5 0 -11 6 -14 13 -3 9 -8 9 -21 -2 -12 -10 -20 -11 -24 -4 -8 12
-172 13 -172 1 0 -5 -76 -8 -170 -8 l-170 0 0 -74 c0 -41 4 -77 9 -81 10 -6
9730 -10 9735 -4 2 2 6 54 8 114 3 61 3 98 1 83 l-4 -28 -2222 0 c-2220 1
-2222 1 -2184 21 20 11 37 22 37 24 0 7 0 7 -50 -20z"/>
<path d="M1180 1048 c0 -4 -105 -9 -232 -10 l-233 -3 -3 -67 -3 -68 238 -1
c131 0 317 -2 413 -3 96 -2 566 -4 1045 -5 741 -1 867 -3 855 -15 -8 -7 -161
-75 -339 -150 -179 -75 -328 -141 -331 -147 -5 -7 -110 -10 -341 -9 -184 2
-479 2 -656 1 l-323 -1 0 -87 0 -86 1423 6 c782 4 1649 7 1927 7 l505 0 -3 77
c-2 43 -6 80 -7 81 -2 2 -569 4 -1261 3 -733 0 -1254 3 -1248 8 5 5 155 70
333 145 179 75 328 142 332 148 6 10 618 12 2814 9 l2807 -3 -7 59 c-3 32 -8
69 -11 83 l-5 26 -195 -4 c-139 -2 -194 0 -189 7 3 6 -1 11 -10 11 -9 0 -13
-4 -10 -10 3 -5 1 -10 -4 -10 -6 0 -11 5 -11 11 0 8 -5 8 -15 -1 -9 -7 -22 -9
-32 -5 -27 12 -76 13 -97 2 -12 -6 -16 -6 -12 1 3 6 -5 9 -19 8 -14 0 -25 -5
-25 -11 0 -5 -5 -3 -10 5 -6 10 -10 11 -10 3 0 -19 -1056 -19 -1063 0 -3 9 -7
9 -19 -1 -13 -10 -17 -10 -21 0 -4 10 -6 10 -6 1 -1 -16 -41 -17 -41 -2 0 8
-5 8 -15 -1 -10 -9 -15 -9 -15 -1 0 6 -9 11 -21 11 -12 0 -17 -4 -13 -11 4 -8
0 -8 -15 0 -16 9 -21 9 -21 -1 0 -10 -2 -10 -9 0 -11 17 -21 17 -32 0 -7 -10
-9 -10 -9 2 0 11 -2 12 -8 2 -7 -9 -210 -14 -949 -18 -917 -7 -941 -6 -946 12
-4 17 -5 17 -6 2 -1 -22 -21 -24 -21 -2 0 8 -5 12 -10 9 -6 -4 -8 -11 -5 -16
9 -13 -11 -11 -27 4 -17 16 -68 19 -68 3 0 -6 -5 -4 -10 4 -8 12 -10 12 -10 1
0 -9 -4 -10 -12 -4 -21 15 -65 14 -72 -2 -5 -13 -67 -15 -473 -14 -325 1 -474
5 -488 12 -27 16 -57 17 -73 4 -10 -8 -16 -7 -21 1 -9 15 -91 8 -103 -9 -8
-11 -9 -11 -5 2 4 13 0 16 -19 15 -13 0 -24 -5 -24 -11 0 -5 -5 -3 -10 5 -8
13 -10 13 -10 -1 0 -16 -39 -17 -472 -13 -309 2 -474 7 -476 14 -2 5 -8 10
-13 10 -6 0 -7 -5 -4 -10 3 -5 2 -10 -4 -10 -5 0 -11 5 -13 11 -3 8 -10 8 -26
-2 -20 -12 -24 -12 -32 1 -9 13 -11 13 -20 0 -6 -10 -10 -11 -10 -2 0 6 -5 12
-11 12 -5 0 -7 -5 -3 -12 5 -7 3 -8 -7 -3 -20 13 -89 13 -89 1 0 -6 -5 -4 -10
4 -6 10 -10 11 -10 3 0 -10 -100 -13 -466 -13 -305 0 -463 3 -459 10 8 13 -46
10 -63 -4 -9 -6 -16 -6 -20 1 -8 11 -172 12 -172 1z"/>
</g>
</svg>
