<?xml version="1.0" standalone="no"?>
<!DOCTYPE svg PUBLIC "-//W3C//DTD SVG 20010904//EN"
 "http://www.w3.org/TR/2001/REC-SVG-20010904/DTD/svg10.dtd">
<svg version="1.0" xmlns="http://www.w3.org/2000/svg"
 width="1280.000000pt" height="486.000000pt" viewBox="0 0 1280.000000 486.000000"
 preserveAspectRatio="xMidYMid meet">
<metadata>
Created by potrace 1.16, written by Peter Selinger 2001-2019
</metadata>
<g transform="translate(0.000000,486.000000) scale(0.100000,-0.100000)"
fill="#000000" stroke="none">
<path d="M10038 4292 l-188 -2 0 -50 c0 -28 5 -51 10 -51 6 -1 15 -3 20 -4 6
-1 187 -3 403 -4 l392 -1 113 -90 c61 -50 112 -92 112 -93 0 -2 -784 -4 -1742
-5 -959 -1 -1752 -4 -1763 -6 -17 -2 -21 -12 -23 -54 l-3 -52 1615 0 1614 0
45 -77 c56 -95 62 -109 45 -111 -82 -6 -1778 -10 -1782 -4 -2 4 -31 5 -63 1
-32 -4 -666 -4 -1409 -1 l-1352 5 -7 -52 c-4 -29 -5 -54 -3 -56 2 -3 175 -7
384 -11 261 -4 401 -10 449 -20 85 -17 106 -17 45 1 -38 11 149 13 1155 16
660 1 1214 2 1230 2 17 -1 315 -1 663 -2 347 -1 632 -5 632 -10 0 -4 -87 -43
-192 -85 -106 -43 -196 -82 -199 -88 -5 -7 -74 -10 -211 -9 -111 1 -603 2
-1093 1 -489 0 -1334 0 -1878 0 l-987 1 6 -43 c3 -24 8 -49 10 -57 4 -11 130
-12 813 -6 l808 7 63 -86 c34 -47 64 -86 66 -86 3 0 -17 33 -44 73 -27 39 -52
78 -56 85 -7 12 198 13 1263 7 l1271 -7 0 65 0 64 83 33 c45 18 88 33 95 33 6
0 12 5 12 10 0 5 7 7 15 3 8 -3 15 -1 15 4 0 5 6 7 14 4 7 -3 20 1 27 9 8 7
19 12 25 10 7 -2 18 3 27 11 8 8 17 13 20 10 2 -3 27 4 55 15 48 19 83 20 654
26 332 3 622 8 646 11 l42 5 0 55 0 54 -192 0 c-106 0 -393 0 -638 0 l-445 0
-52 89 c-29 50 -53 93 -53 95 0 3 230 6 512 6 281 0 513 2 516 5 2 2 1 30 -3
61 l-7 57 -354 -7 -353 -7 -108 86 c-59 48 -110 91 -111 96 -2 6 310 9 785 9
433 0 794 0 801 0 8 0 12 18 12 55 l0 55 -107 1 c-497 2 -2016 3 -2165 1z"/>
<path d="M6860 3090 l-985 -5 3 -25 c2 -14 5 -34 7 -45 2 -11 4 -23 4 -27 1
-5 447 -8 991 -8 l991 0 -7 53 c-4 28 -9 54 -13 57 -3 3 -449 3 -991 0z"/>
<path d="M4943 2872 l-593 -2 0 -34 c0 -72 -53 -66 614 -66 l601 0 3 49 c2 40
-1 49 -15 52 -10 2 -285 3 -610 1z"/>
<path d="M5675 2598 c7 -16 -2 -18 -86 -19 -52 0 -499 -2 -994 -5 l-900 -5 -3
-36 c-5 -53 5 -82 25 -78 50 10 398 15 1133 15 448 0 821 4 827 8 17 11 21
108 5 124 -11 11 -12 10 -7 -4z"/>
<path d="M3545 2352 l-110 -78 -183 1 c-133 0 -186 -3 -191 -12 -3 -7 -5 -32
-3 -57 l4 -46 208 0 208 0 107 -86 c91 -73 105 -88 90 -96 -9 -6 -88 -9 -183
-7 -92 2 -373 2 -624 1 l-458 -2 0 -55 0 -55 630 0 c483 0 630 -3 630 -12 0
-9 3 -9 12 0 9 9 155 12 596 12 l584 0 -7 43 c-3 23 -8 49 -11 57 -3 13 -72
15 -560 12 l-556 -3 -114 92 c-63 50 -113 93 -112 95 2 1 279 6 617 10 521 6
614 5 622 -7 6 -10 9 -10 9 -1 0 9 82 12 375 12 l375 0 0 45 c0 39 6 52 42 93
l42 47 -44 -42 -45 -41 -363 -4 c-394 -4 -388 -3 -376 -60 3 -15 0 -29 -6 -33
-9 -5 -11 6 -9 41 l4 49 -165 3 c-91 2 -373 3 -627 3 -374 1 -463 3 -467 14
-3 8 25 33 74 65 67 44 113 81 99 80 -2 -1 -53 -36 -114 -78z"/>
<path d="M3468 1720 l-77 -49 -806 2 -805 2 0 -57 c0 -53 5 -64 55 -142 58
-89 62 -98 43 -95 -7 1 -174 1 -370 0 l-358 -1 0 -44 c0 -82 -29 -76 356 -76
l343 0 131 -86 c71 -47 130 -89 130 -94 0 -4 -353 -8 -784 -8 -432 0 -790 -3
-795 -7 -6 -3 -11 -28 -11 -54 l0 -48 810 -8 810 -7 6 -37 c9 -54 15 -62 10
-13 -3 27 0 45 7 47 7 2 195 7 420 11 l407 6 0 53 0 53 -137 4 c-76 3 -264 6
-418 7 l-280 2 -112 72 c-62 40 -123 80 -136 89 -21 16 24 17 837 18 472 0
862 3 867 6 5 3 9 27 9 55 l0 49 -67 0 c-1008 6 -1630 12 -1639 15 -14 4 -108
164 -101 171 3 3 372 8 819 11 447 3 890 7 983 8 94 2 270 4 393 4 l222 1 0
40 c0 25 -5 40 -12 41 -47 4 -285 8 -520 9 -153 0 -278 2 -278 4 0 2 29 23 65
46 56 36 74 51 63 50 -2 0 -38 -23 -80 -50z"/>
<path d="M896 739 c-3 -17 -6 -40 -6 -50 0 -18 23 -19 735 -19 l735 0 0 34 c0
72 66 66 -735 66 l-722 0 -7 -31z"/>
</g>
</svg>
