<?xml version="1.0" standalone="no"?>
<!DOCTYPE svg PUBLIC "-//W3C//DTD SVG 20010904//EN"
 "http://www.w3.org/TR/2001/REC-SVG-20010904/DTD/svg10.dtd">
<svg version="1.0" xmlns="http://www.w3.org/2000/svg"
 width="1081.000000pt" height="674.000000pt" viewBox="0 0 1081.000000 674.000000"
 preserveAspectRatio="xMidYMid meet">
<metadata>
Created by potrace 1.16, written by Peter Selinger 2001-2019
</metadata>
<g transform="translate(0.000000,674.000000) scale(0.100000,-0.100000)"
fill="#000000" stroke="none">
<path d="M3623 6652 c-330 -3 -299 7 -287 -86 l7 -46 1593 0 1594 0 0 65 0 65
-132 0 c-772 3 -2546 4 -2775 2z"/>
<path d="M2620 6207 c0 -41 5 -69 13 -75 9 -8 373 -12 1253 -13 681 0 1250 -2
1264 -4 14 -2 90 -4 170 -4 l145 -1 -83 -83 c-45 -45 -82 -87 -82 -92 0 -6 40
33 89 85 l88 95 449 3 c247 1 463 5 479 7 30 5 30 6 30 69 0 35 -3 60 -6 54
-4 -7 -94 -8 -260 -4 -140 3 -949 8 -1799 11 -850 3 -1591 7 -1647 11 l-103 5
0 -64z"/>
<path d="M7383 5933 l-63 -4 0 -75 0 -76 111 8 c110 7 112 6 131 -17 l19 -24
-15 32 c-17 34 -22 133 -7 133 4 0 8 -23 8 -50 0 -28 2 -52 4 -54 2 -2 232 -6
512 -9 l507 -6 0 59 0 60 -250 0 c-193 0 -250 3 -250 13 0 8 -4 7 -10 -3 -5
-8 -10 -10 -10 -5 0 6 -35 9 -92 8 -186 -5 -412 -1 -467 8 -31 5 -58 8 -61 7
-3 -1 -33 -3 -67 -5z"/>
<path d="M2307 5862 l-378 -2 3 -68 3 -67 1119 -3 1119 -2 -6 61 c-3 33 -7 63
-10 65 -2 3 -303 7 -668 10 -365 3 -695 7 -734 7 -38 1 -240 1 -448 -1z"/>
<path d="M5237 5864 c-1 -1 -240 -4 -530 -7 -291 -3 -529 -7 -531 -8 -1 -2 0
-30 2 -61 l4 -58 81 0 c45 0 195 -2 332 -5 138 -3 386 -7 553 -10 l302 -4 0
23 c0 13 -3 43 -6 68 l-6 45 -100 9 c-55 5 -100 9 -101 8z"/>
<path d="M6460 5508 c0 -14 3 -46 6 -72 l7 -46 637 0 637 0 -13 61 c-7 33 -15
63 -18 67 -3 3 -287 7 -631 10 l-625 5 0 -25z"/>
<path d="M1244 5461 c-2 -2 -4 -36 -4 -74 l0 -70 978 7 c537 3 1056 6 1153 6
l176 0 6 57 c3 32 2 62 -2 66 -8 8 -2299 16 -2307 8z"/>
<path d="M7045 5134 c-27 -14 -96 -16 -630 -12 l-600 3 -6 -65 c-4 -36 -6 -66
-4 -68 4 -5 1238 -2 1243 3 3 2 0 32 -5 65 l-10 61 31 14 c17 7 27 14 21 14
-5 1 -23 -6 -40 -15z"/>
<path d="M587 5058 c-13 -7 -17 -23 -17 -68 l0 -60 828 -1 c455 0 1031 -1
1279 -2 l453 -2 0 60 0 60 -202 3 c-127 2 -207 7 -215 14 -7 6 -13 7 -13 2 0
-5 -14 -10 -30 -11 -17 -1 -30 1 -30 6 0 9 -67 7 -77 -2 -3 -4 -14 -2 -24 3
-12 7 -20 7 -24 0 -8 -13 -1255 -14 -1255 -1 0 9 -43 7 -59 -4 -6 -3 -11 -2
-11 2 0 11 -125 11 -136 1 -7 -7 -417 -1 -440 6 -5 2 -18 0 -27 -6z"/>
<path d="M2966 4774 l-139 -134 -286 6 c-160 3 -287 10 -289 15 -2 5 -8 9 -13
9 -6 0 -7 -4 -4 -10 3 -5 1 -10 -4 -10 -6 0 -11 5 -11 10 0 6 -8 5 -20 -2 -17
-11 -22 -10 -30 2 -9 13 -10 13 -10 0 0 -10 -3 -11 -8 -4 -8 13 -112 16 -112
3 0 -5 -130 -9 -290 -9 -159 0 -290 3 -290 8 0 4 -46 7 -103 6 -56 0 -245 -1
-419 -2 l-318 -2 0 -70 0 -70 1095 0 c603 1 1102 3 1110 7 11 3 15 21 15 59
l0 54 138 135 c75 74 135 134 132 134 -3 0 -68 -61 -144 -135z"/>
<path d="M10035 4683 l0 -76 75 -49 c95 -62 114 -72 107 -60 -4 5 -43 33 -89
63 l-82 54 134 7 c89 5 136 12 142 20 4 7 8 37 8 66 l0 52 -147 0 -148 0 0
-77z"/>
<path d="M5430 4671 l0 -61 156 0 c131 0 155 2 151 14 -3 8 -9 30 -12 49 -8
40 -9 40 -197 53 l-98 6 0 -61z"/>
<path d="M9170 4290 l0 -73 635 4 635 4 0 63 0 62 -107 0 c-60 0 -345 3 -635
7 l-528 6 0 -73z"/>
<path d="M10235 3970 c-17 -19 -34 -19 -961 -13 l-944 6 0 -71 0 -72 943 -2
c518 -2 946 0 951 4 5 4 8 35 7 69 -2 46 2 65 15 80 9 10 15 19 12 19 -3 0
-13 -9 -23 -20z"/>
<path d="M2971 3836 l2 -78 -209 -120 -208 -119 -244 3 -244 3 5 -63 c3 -35 8
-66 11 -70 7 -7 111 -9 791 -16 231 -3 429 -6 440 -8 18 -3 20 3 23 70 l3 72
-133 2 c-73 0 -187 2 -253 4 -66 2 -178 3 -250 4 l-130 0 195 111 c107 61 201
116 209 122 10 9 185 13 638 15 l623 4 0 64 c0 59 -2 64 -24 70 -14 3 -300 7
-636 7 l-611 2 2 -79z"/>
<path d="M8003 3563 l-543 -3 0 -54 c0 -35 5 -60 15 -69 12 -13 75 -15 407
-16 669 -1 1458 -14 1452 -22 -3 -5 1 -6 9 -3 16 6 27 55 27 127 l0 47 -412
-2 c-227 -2 -657 -4 -955 -5z"/>
<path d="M8905 3188 l-60 -31 -288 2 c-158 1 -299 5 -314 7 l-26 5 6 -71 c3
-41 2 -70 -4 -70 -5 0 -9 29 -9 65 l0 65 -192 1 c-568 3 -1411 0 -1415 -5 -3
-3 -2 -33 1 -68 l7 -63 801 4 c671 3 799 1 792 -10 -4 -8 -19 -30 -32 -49 -17
-25 -12 -21 18 13 l42 47 304 0 304 0 0 58 0 58 73 36 c39 20 68 37 62 37 -5
0 -37 -14 -70 -31z"/>
<path d="M1558 3112 l-178 -2 0 -70 0 -70 351 0 c198 0 349 -4 347 -9 -1 -5
-50 -60 -107 -124 -117 -130 -110 -127 -272 -127 -110 0 -109 0 -109 -81 l0
-49 79 0 c43 0 106 3 140 6 l61 7 0 58 c0 33 4 59 10 59 5 0 9 4 7 9 -1 5 34
49 78 98 44 49 92 103 106 120 l25 30 275 7 c188 5 269 4 259 -3 -18 -13 -1
-14 19 -2 10 7 12 24 6 75 l-7 66 -361 1 c-199 0 -405 2 -457 2 -52 1 -175 1
-272 -1z"/>
<path d="M6185 2759 c-4 -5 -92 -9 -206 -9 l-199 0 0 -55 0 -55 933 -1 c1127
-1 1253 -2 1263 -11 4 -5 1 -8 -6 -8 -7 0 -11 -2 -8 -5 2 -3 18 -1 34 5 28 10
29 11 26 73 l-3 62 -146 -3 c-112 -2 -148 0 -154 10 -7 10 -9 10 -9 -1 0 -10
-3 -11 -14 -2 -10 8 -16 9 -21 1 -3 -6 -12 -7 -18 -3 -16 10 -57 13 -57 4 0
-3 -9 -7 -19 -7 -11 0 -17 4 -14 8 2 5 -8 5 -24 1 -35 -9 -1122 -16 -1143 -7
-26 12 -51 14 -46 5 4 -5 -2 -8 -11 -6 -10 2 -18 4 -18 5 0 1 -15 3 -33 6 -18
2 -31 0 -28 -4 2 -4 -4 -8 -15 -8 -10 0 -19 3 -19 6 0 10 -39 9 -45 -1z"/>
<path d="M5320 2359 c0 -5 -94 -9 -210 -9 l-210 0 0 -55 0 -55 518 0 c284 -1
793 -3 1131 -7 l614 -5 -6 62 c-3 34 -8 64 -11 67 -7 7 -1093 5 -1394 -2 -112
-3 -209 -2 -215 2 -17 11 -217 12 -217 2z"/>
<path d="M4313 1962 l-243 -2 0 -67 0 -66 1106 7 c706 5 1104 4 1100 -3 -3 -5
3 -7 14 -4 19 5 21 12 18 65 l-3 60 -100 5 c-115 5 -1532 9 -1892 5z"/>
<path d="M3391 1520 c1 -30 4 -93 8 -140 l8 -85 1 67 c1 37 7 70 13 73 6 4
505 7 1110 7 l1099 -1 0 55 0 54 -32 1 c-18 0 -91 2 -163 4 -258 8 -334 9
-582 7 l-252 -2 -4 -27 c-4 -26 -4 -26 -6 5 l-1 32 -192 0 c-106 0 -376 2
-600 3 l-408 2 1 -55z"/>
<path d="M3392 1233 l-2 -63 -399 0 c-219 0 -413 -3 -431 -6 -32 -7 -32 -7
-27 -57 4 -27 8 -51 9 -53 10 -10 2221 -19 2238 -9 5 3 10 34 10 68 l0 62
-695 -2 -694 -2 -4 62 -3 62 -2 -62z"/>
<path d="M3370 907 l-65 -122 -285 -5 -285 -5 -3 -44 c-5 -62 4 -90 25 -86 10
2 295 4 633 4 l615 1 -5 67 -5 67 -337 -3 c-186 -1 -338 1 -338 4 0 4 27 59
61 122 34 63 59 116 58 118 -2 2 -33 -51 -69 -118z"/>
<path d="M2750 626 c0 -4 32 -59 71 -122 61 -99 70 -120 69 -157 -1 -23 -1
-55 -1 -70 l1 -28 131 2 c174 2 169 0 169 64 l0 52 -82 6 c-46 4 -110 7 -143
7 l-60 1 -77 127 c-43 70 -78 123 -78 118z"/>
</g>
</svg>
